<svg xmlns="http://www.w3.org/2000/svg" width="32" height="32" fill="#C1F0D0" viewBox="0 0 32 32"><defs><style>.cls-1{fill:#04009a}.cls-2{fill:#77acf1}</style></defs><g id="_8._Monitor_Screen" data-name="8. Monitor Screen"><path d="M31,18a1,1,0,0,0,1-1V3a3,3,0,0,0-3-3H3A3,3,0,0,0,0,3V23a3,3,0,0,0,3,3H8a1,1,0,0,0,0-2H3a1,1,0,0,1-1-1V22H30v1a1,1,0,0,1-1,1H12a1,1,0,0,0-1,1v1.171A5.786,5.786,0,0,1,9.559,30H8a1,1,0,0,0,0,2H24a1,1,0,0,0,0-2H22.441A5.788,5.788,0,0,1,21,26.171V26h8a3,3,0,0,0,3-3V21a1,1,0,0,0-1-1H2V3A1,1,0,0,1,3,2H29a1,1,0,0,1,1,1V17A1,1,0,0,0,31,18ZM20,30H12a7.787,7.787,0,0,0,1-3.829V26h6v.171A7.787,7.787,0,0,0,20,30Z" class="cls-1"/><path d="M19,18H5a1,1,0,0,1,0-2H19a1,1,0,0,1,0,2Z" class="cls-2"/><path d="M27,14H5a1,1,0,0,1,0-2H27a1,1,0,0,1,0,2Z" class="cls-2"/><path d="M27,10H5A1,1,0,0,1,5,8H27a1,1,0,0,1,0,2Z" class="cls-2"/><path d="M22,6H10a1,1,0,0,1,0-2H22a1,1,0,0,1,0,2Z" class="cls-2"/></g></svg>